<svg xmlns="http://www.w3.org/2000/svg" viewBox="0 0 340.48 405.87"><defs><style>.cls-1{isolation:isolate;}.cls-2{fill:#f9b234;}.cls-3{fill:#b67400;}.cls-4{fill:#fff6e7;opacity:0.31;mix-blend-mode:overlay;}.cls-5{fill:none;stroke:#fff6e7;stroke-miterlimit:10;stroke-width:5.46px;}</style></defs><title>cone</title><g class="cls-1"><g id="Layer_1" data-name="Layer 1"><path class="cls-2" d="M448.65,126.59A32.77,32.77,0,0,0,417,102h-.51a32.75,32.75,0,0,0-31.77,24.35L292.09,474.72l123.42.42,123.43.42Z" transform="translate(-245.22 -102.02)"/><path class="cls-3" d="M569.53,507.89l-308.25-1a16.12,16.12,0,0,1-16.06-16.17h0a16.12,16.12,0,0,1,16.17-16.06l308.25,1a16.12,16.12,0,0,1,16.06,16.17h0A16.12,16.12,0,0,1,569.53,507.89Z" transform="translate(-245.22 -102.02)"/><path class="cls-4" d="M374.89,491.12a16.13,16.13,0,0,1,16.18-16.07l-129.68-.43a16.12,16.12,0,0,0-.11,32.23l129.68.44A16.12,16.12,0,0,1,374.89,491.12Z" transform="translate(-245.22 -102.02)"/><polygon class="cls-3" points="115.86 113.32 226.49 113.69 213.81 64.7 128.87 64.42 115.86 113.32"/><polygon class="cls-3" points="89.09 213.95 252.57 214.5 239.89 165.51 102.1 165.05 89.09 213.95"/><polygon class="cls-3" points="62.33 314.58 278.65 315.31 265.98 266.32 75.34 265.68 62.33 314.58"/><line class="cls-5" x1="46.87" y1="372.7" x2="293.72" y2="373.53"/><path class="cls-4" d="M384.75,126.37,292.09,474.72l94.77.32,25.67-372.76A32.74,32.74,0,0,0,384.75,126.37Z" transform="translate(-245.22 -102.02)"/></g></g></svg>