<?xml version="1.0" encoding="utf-8"?>
<!-- Generator: Adobe Illustrator 27.5.0, SVG Export Plug-In . SVG Version: 6.00 Build 0)  -->
<svg version="1.1" xmlns="http://www.w3.org/2000/svg" xmlns:xlink="http://www.w3.org/1999/xlink" x="0px" y="0px"
	 viewBox="0 0 500 500" style="enable-background:new 0 0 500 500;" xml:space="preserve">
<g id="Background">
	<rect style="fill:#FFFFFF;" width="500" height="500"/>
</g>
<g id="Objects">
	<g>
		<g>
			<path style="fill:#A2BFF4;" d="M227.466,51.655c-17.274,9.505-36.035,15.912-55.473,18.695
				c-49.738,7.122-90.505,7.429-125.798,69.118c-32.881,57.473,8.052,94.421-10.737,151.209
				C16.67,347.466-32.315,452.835,166.31,474.729c198.625,21.894,340.684,0.885,314.042-121.105
				c-35.565-162.84,4.697-158.051-16.105-233.313C435.638,16.802,310.581,1.942,262.268,31.363
				C247.843,40.148,236.41,46.735,227.466,51.655"/>
			<path style="fill:#7391E5;" d="M42.82,153.978c8.947-0.284,17.768,2.82,24.713,8.452c7.294,5.914,12.708,14.308,14.477,23.592
				c1.863,9.775-0.119,19.493-4.894,28.111c12.041-3.228,26.455-3.321,36.981,4.112c10.974,7.749,13.181,20.699,10.787,33.143
				c4.662-4.455,9.871-8.537,15.562-11.548c5.122-2.711,11.593-5.382,17.48-3.74c10.395,2.9,14.235,13.439,11.74,22.841
				c6.062-7.649,15.639-12.486,25.588-9.655c11.466,3.263,16.383,14.274,15.414,25.415c19.108-16.345,59.103-13.52,64.586,14.737
				c4.124-6.786,11.834-11.202,19.889-10.724c7.463,0.441,13.449,4.756,15.725,11.609c4.713-23.013,40.249-33.922,57.618-18.513
				c0.154-4.389,0.978-8.837,1.796-13.119c1.319-6.912,2.993-13.868,5.674-20.392c1.832-4.457,4.407-10.406,9.098-12.574
				c4.54-2.099,8.621,0.763,11.627,4.081c0.285-1.48,0.607-2.953,1.028-4.4c5.057-17.395,19.422-33.208,37.536-37.162
				c7.846-1.712,16.268-1.084,23.315,3.01c3.44,1.999,6.342,4.583,8.798,7.547c2.982-25.563,6.629-43.253-3.111-78.492
				C435.638,16.802,310.581,1.942,262.268,31.363c-14.425,8.784-25.858,15.372-34.801,20.292
				c-17.274,9.505-36.035,15.912-55.473,18.695c-49.738,7.122-90.505,7.429-125.798,69.118c-2.92,5.105-5.249,10.044-7.098,14.853
				C40.321,154.138,41.562,154.018,42.82,153.978z"/>
		</g>
		<g>
			<path style="fill:#222E56;" d="M182.791,108.334c-0.46,0-0.833-0.44-0.833-0.982V54.315c0-0.543,0.373-0.982,0.833-0.982
				c0.46,0,0.833,0.439,0.833,0.982v53.036C183.624,107.894,183.251,108.334,182.791,108.334"/>
			<path style="fill:#222E56;" d="M279.042,128.084c-0.46,0-0.833-0.44-0.833-0.982V74.065c0-0.543,0.373-0.982,0.833-0.982
				c0.46,0,0.833,0.439,0.833,0.982v53.036C279.875,127.644,279.502,128.084,279.042,128.084"/>
			<rect x="173.084" y="99.666" style="fill:#2A3D72;" width="24.333" height="10.417"/>
			<polygon style="fill:#222E56;" points="390.917,253.583 390.917,183.583 341.667,183.583 341.667,188.333 334.667,188.333 
				334.667,199.833 309.667,199.833 309.667,271.833 301.083,271.833 301.083,140.333 257.083,140.333 257.083,258.667 
				247.75,258.667 247.75,220.333 214.875,200.333 214.875,214.333 204.084,214.333 204.084,106.666 166.417,106.666 166.417,186.5 
				147.417,186.5 147.417,236.666 137.028,236.666 137.028,207 127.556,207 127.556,199 119.722,199 119.722,189 105.056,189 
				105.056,199 97.222,199 97.222,207 87.75,207 87.75,236.666 49.417,236.666 49.417,390 87.75,390 97.222,390 105.056,390 
				119.722,390 127.556,390 137.028,390 147.417,390 166.417,390 177.75,390 200.417,390 204.084,390 214.875,390 219.417,390 
				230.75,390 247.75,390 257.083,390 274.75,390 282.25,390 301.083,390 309.667,390 326.25,390 334.667,390 341.667,390 
				341.75,390 366.75,390 377.417,390 390.917,390 446.5,390 446.5,253.583 			"/>
			<polygon style="fill:#222E56;" points="279.083,115 257.75,138.5 300.417,138.5 			"/>
			<rect x="253.417" y="136.223" style="fill:#2A3D72;" width="51.333" height="7.944"/>
			<g>
				<rect x="172.479" y="114.291" style="fill:#E8EAEF;" width="25.542" height="8.167"/>
				<rect x="172.479" y="126.729" style="fill:#E8EAEF;" width="25.542" height="8.167"/>
				<rect x="172.479" y="139.166" style="fill:#E8EAEF;" width="25.542" height="8.167"/>
				<rect x="172.479" y="151.604" style="fill:#E8EAEF;" width="25.542" height="8.167"/>
			</g>
			<g>
				<rect x="262.958" y="150.834" style="fill:#E8EAEF;" width="8.417" height="11.708"/>
				<rect x="274.292" y="150.834" style="fill:#E8EAEF;" width="8.416" height="11.708"/>
				<rect x="285.625" y="150.834" style="fill:#E8EAEF;" width="8.417" height="11.708"/>
				<rect x="262.958" y="165.875" style="fill:#E8EAEF;" width="8.417" height="11.708"/>
				<rect x="274.292" y="165.875" style="fill:#E8EAEF;" width="8.416" height="11.708"/>
				<rect x="285.625" y="165.875" style="fill:#E8EAEF;" width="8.417" height="11.708"/>
				<rect x="262.958" y="180.917" style="fill:#E8EAEF;" width="8.417" height="11.708"/>
				<rect x="274.292" y="180.917" style="fill:#E8EAEF;" width="8.416" height="11.708"/>
				<rect x="285.625" y="180.917" style="fill:#E8EAEF;" width="8.417" height="11.708"/>
				<rect x="262.958" y="195.959" style="fill:#E8EAEF;" width="8.417" height="11.708"/>
				<rect x="274.292" y="195.959" style="fill:#E8EAEF;" width="8.416" height="11.708"/>
				<rect x="285.625" y="195.959" style="fill:#E8EAEF;" width="8.417" height="11.708"/>
			</g>
			<g>
				<rect x="419.792" y="262.458" style="fill:#E8EAEF;" width="8.416" height="11.709"/>
				<rect x="431.125" y="262.458" style="fill:#E8EAEF;" width="8.417" height="11.709"/>
				<rect x="431.125" y="277.458" style="fill:#E8EAEF;" width="8.417" height="11.709"/>
			</g>
			<g>
				<rect x="93.729" y="213.083" style="fill:#E8EAEF;" width="10.75" height="9"/>
				<rect x="106.917" y="213.083" style="fill:#E8EAEF;" width="10.75" height="9"/>
				<rect x="120.104" y="213.083" style="fill:#E8EAEF;" width="10.75" height="9"/>
			</g>
			<g>
				<rect x="56.167" y="244.833" style="fill:#E8EAEF;" width="10.75" height="9"/>
				<rect x="69.292" y="244.833" style="fill:#E8EAEF;" width="10.75" height="9"/>
				<rect x="56.167" y="256.583" style="fill:#E8EAEF;" width="10.75" height="9"/>
				<rect x="69.292" y="256.583" style="fill:#E8EAEF;" width="10.75" height="9"/>
			</g>
			<rect x="341.667" y="183.583" style="fill:#2A3D72;" width="49.25" height="4.417"/>
		</g>
		<g>
			<path style="fill:#A3A2A5;" d="M269.525,372.256c-13.144-7.252-24.502-13.049-27.025-12.923
				c-4.636,0.232-31.024,19.156-46.676,30.667h4.592h3.667h10.792h4.541h11.334H245.1h2.651h9.333h17.667h7.5h18.342
				C291.447,384.647,279.93,377.997,269.525,372.256"/>
			<path style="fill:#818084;" d="M242.5,359.333c-0.887,0.045-2.576,0.777-4.828,2.008c2.249,0.564,4.728,1.874,7.328,4.409
				c6.345,6.186,16.407,17.096,22.92,24.25h6.83h7.5h18.342c-9.145-5.353-20.662-12.003-31.066-17.744
				C256.382,365.004,245.023,359.207,242.5,359.333"/>
			<path style="fill:#D1CFC9;" d="M304,355.5c-8.757,1.042-22.004,8.461-34.475,16.756c-9.306,6.188-18.174,12.861-24.426,17.744
				h2.651h9.333h17.667h7.5h18.342h0.491h8.584h16.583h8.417h7h0.083h25h0.233C348.168,375.325,317.921,353.843,304,355.5"/>
			<path style="fill:#A3A2A5;" d="M366.983,390c-18.815-14.675-49.064-36.157-62.983-34.5c-1.24,0.147-2.58,0.438-3.986,0.824
				c4.222,2.168,9.028,5.718,14.486,11.176c9.918,9.918,17.135,17.189,22.4,22.5h4.767h0.083h25H366.983z"/>
			<path style="fill:#A3A2A5;" d="M286.125,382.25c0-0.828,0.672-1.5,1.5-1.5s1.5,0.672,1.5,1.5s-0.672,1.5-1.5,1.5
				S286.125,383.078,286.125,382.25"/>
			<path style="fill:#A3A2A5;" d="M277.5,380.375c0-0.414,0.336-0.75,0.75-0.75s0.75,0.336,0.75,0.75s-0.336,0.75-0.75,0.75
				S277.5,380.789,277.5,380.375"/>
			<path style="fill:#A3A2A5;" d="M285.625,374.875c0-0.553,0.447-1,1-1s1,0.447,1,1s-0.447,1-1,1S285.625,375.428,285.625,374.875"
				/>
			<path style="fill:#A3A2A5;" d="M299.875,377.875c0-0.621,0.504-1.125,1.125-1.125s1.125,0.504,1.125,1.125S301.621,379,301,379
				S299.875,378.496,299.875,377.875"/>
			<path style="fill:#A3A2A5;" d="M297.5,368.75c0-0.828,0.672-1.5,1.5-1.5s1.5,0.672,1.5,1.5s-0.672,1.5-1.5,1.5
				S297.5,369.578,297.5,368.75"/>
			<path style="fill:#A3A2A5;" d="M306.375,376.375c0-0.345,0.28-0.625,0.625-0.625s0.625,0.28,0.625,0.625S307.345,377,307,377
				S306.375,376.72,306.375,376.375"/>
			<path style="fill:#A3A2A5;" d="M304,383.125c0-0.69,0.56-1.25,1.25-1.25s1.25,0.56,1.25,1.25s-0.56,1.25-1.25,1.25
				S304,383.815,304,383.125"/>
			<path style="fill:#818084;" d="M221.125,381.25c0-0.553,0.448-1,1-1c0.552,0,1,0.447,1,1s-0.448,1-1,1
				C221.573,382.25,221.125,381.803,221.125,381.25"/>
			<path style="fill:#818084;" d="M237.625,383.5c0-0.345,0.28-0.625,0.625-0.625s0.625,0.28,0.625,0.625s-0.28,0.625-0.625,0.625
				S237.625,383.845,237.625,383.5"/>
			<path style="fill:#818084;" d="M243.75,379.875c0-0.553,0.448-1,1-1c0.552,0,1,0.447,1,1s-0.448,1-1,1
				C244.198,380.875,243.75,380.428,243.75,379.875"/>
			<path style="fill:#818084;" d="M235.125,376.25c0-0.483,0.392-0.875,0.875-0.875c0.483,0,0.875,0.392,0.875,0.875
				s-0.392,0.875-0.875,0.875C235.517,377.125,235.125,376.733,235.125,376.25"/>
		</g>
		<g>
			<path style="fill:#7894B5;" d="M17.754,389c7.425,38.933,43.074,74.103,148.556,85.729
				C343.932,494.308,476.31,479.573,483.27,389H17.754z"/>
			<g style="opacity:0.3;">
				<path style="fill:#0F2749;" d="M428.218,442.366c0,6.425-28.815,11.634-64.359,11.634c-35.544,0-64.358-5.209-64.358-11.634
					c0-6.426,28.814-11.634,64.358-11.634C399.403,430.732,428.218,435.94,428.218,442.366z"/>
				<ellipse style="fill:#0F2749;" cx="141.131" cy="441.366" rx="69.952" ry="11.634"/>
				<path style="fill:#0F2749;" d="M126.774,441.772c0,3.515-25.258,6.364-56.414,6.364c-31.156,0-56.413-2.85-56.413-6.364
					c0-3.516,25.257-6.365,56.413-6.365C101.517,435.407,126.774,438.257,126.774,441.772z"/>
			</g>
		</g>
		<g>
			<path style="fill:#2B2B33;" d="M320.427,270.188h27.479c0.466,0,0.844,0.378,0.844,0.844v1.5c0,0.466-0.378,0.845-0.844,0.845
				h-27.479c-0.466,0-0.844-0.379-0.844-0.845v-1.5C319.583,270.565,319.961,270.188,320.427,270.188"/>
			<polygon style="fill:#A3A2A5;" points="430.5,350.833 430.5,335.5 429,321.5 417.667,304.833 374.333,284.167 371,293.833 
				408.833,315.167 418.333,331 418.333,350.333 			"/>
			<path style="fill:#807F84;" d="M424.045,314.213c-6.086,0.727-12.418,0.18-18.804-1.071l3.592,2.025l9.5,15.833v19.333
				l12.167,0.5V335.5l-1.5-14L424.045,314.213z"/>
			<polygon style="fill:#A3A2A5;" points="363.333,289.167 347,281.833 329.167,281.833 301.167,295.333 297.333,288.833 
				326.833,271.833 348.5,271.833 366.667,281.167 			"/>
			<path style="fill:#444449;" d="M360,286.75c0-4.557,3.693-8.25,8.25-8.25c4.557,0,8.25,3.693,8.25,8.25
				c0,4.557-3.693,8.25-8.25,8.25C363.693,295,360,291.307,360,286.75"/>
			
				<rect x="290.614" y="278.406" transform="matrix(0.8646 -0.5025 0.5025 0.8646 -99.1022 192.1089)" style="fill:#2B2B33;" width="32.459" height="3.001"/>
			<path style="fill:#444449;" d="M303.813,279.938c0-1.45,1.175-2.625,2.625-2.625s2.625,1.175,2.625,2.625
				s-1.175,2.625-2.625,2.625S303.813,281.388,303.813,279.938"/>
			<path style="fill:#A3A2A5;" d="M305.188,279.938c0-0.69,0.56-1.25,1.25-1.25s1.25,0.56,1.25,1.25s-0.56,1.25-1.25,1.25
				S305.188,280.628,305.188,279.938"/>
			<path style="fill:#2B2B33;" d="M286.167,287c0,0,7.833-2.917,8.833-2.5s2,2.333,2.167,3.333c0.166,1-2.584,4.834-2.584,4.834
				L286.167,287z"/>
			<path style="fill:#807F84;" d="M263.5,301.083l4.287-10.374l3.172-0.857c0,0,0-8.574,7.717-10.375
				c7.717-1.801,10.546,4.716,10.375,7.288c0,0,5.83-0.172,6.516,2.829c0.686,3.001,0.601,6.859-1.457,7.117
				c-2.058,0.257-22.55-0.258-23.579,0.257C269.502,297.482,263.5,301.083,263.5,301.083"/>
			<path style="fill:#444449;" d="M294.5,292.125c0-2.692,2.183-4.875,4.875-4.875c2.692,0,4.875,2.183,4.875,4.875
				c0,2.692-2.183,4.875-4.875,4.875C296.683,297,294.5,294.817,294.5,292.125"/>
			<path style="fill:#A3A2A5;" d="M297.563,292.125c0-1.001,0.811-1.811,1.811-1.811c1.001,0,1.814,0.81,1.814,1.811
				s-0.813,1.813-1.814,1.813C298.374,293.938,297.563,293.126,297.563,292.125"/>
			<path style="fill:#EAAA42;" d="M418.375,331.875h17.81c3.752,0,6.919,2.791,7.39,6.514l4.176,32.986h-30.813
				c-2.658,0-4.813-2.154-4.813-4.811v-28.439C412.125,334.673,414.923,331.875,418.375,331.875"/>
			<path style="fill:#D7DCE2;" d="M434.583,335.375h2.82c0.911,0,1.685,0.713,1.815,1.673l3.98,29.41
				c0.159,1.176-0.698,2.23-1.814,2.23h-6.801c-1.013,0-1.833-0.875-1.833-1.952v-29.41
				C432.75,336.249,433.57,335.375,434.583,335.375"/>
			<path style="fill:#E0813B;" d="M435.109,352.474c-6.323,3.175-15.781,6.367-22.984,3.681v10.409c0,2.657,2.154,4.811,4.813,4.811
				h30.813l-3.223-25.46C441.939,348.738,438.499,350.772,435.109,352.474z"/>
			<path style="fill:#FFFFFF;" d="M440.851,349.111c-1.815,1.289-3.787,2.381-5.741,3.362c-0.743,0.373-1.539,0.744-2.359,1.108
				v13.154c0,1.077,0.82,1.952,1.833,1.952h6.801c1.116,0,1.974-1.055,1.814-2.23L440.851,349.111z"/>
			<g>
				<path style="fill:#FFFFFF;" d="M429.813,361.469v-24.125c0-1.087-0.882-1.969-1.969-1.969h-13.702
					c-0.988,0-1.822,0.731-1.958,1.71c-0.038,0.279-0.059,0.563-0.059,0.853v13.969c0,1.087,0.882,1.969,1.969,1.969
					c1.087,0,1.969,0.882,1.969,1.969v5.625c0,1.087,0.882,1.969,1.969,1.969h9.813
					C428.931,363.438,429.813,362.556,429.813,361.469"/>
				<path style="fill:#D7DCE2;" d="M416.063,357.055v4.414c0,1.087,0.882,1.969,1.969,1.969h9.813c1.087,0,1.969-0.882,1.969-1.969
					v-6.689C425.472,356.396,420.555,357.521,416.063,357.055z"/>
			</g>
			<rect x="453.333" y="344.417" style="fill:#444449;" width="1.917" height="8.833"/>
			<rect x="418.417" y="369.667" style="fill:#D3562F;" width="30.916" height="4.666"/>
			<path style="fill:#444449;" d="M451.395,343.25c0-1.15,1.353-2.083,3.021-2.083c1.669,0,3.022,0.933,3.022,2.083
				s-1.353,2.083-3.022,2.083C452.748,345.333,451.395,344.4,451.395,343.25"/>
			<path style="fill:#EAAA42;" d="M442.75,349.25h36.875c3.727,0,6.75,3.022,6.75,6.75l0.716,11.005
				c0.154,2.366-1.724,4.37-4.095,4.37H432V356C432,350,439.021,349.25,442.75,349.25"/>
			<path style="fill:#FFDD50;" d="M441.764,349.25h33.494c3.386,0,6.131,3.022,6.131,6.75l0.649,11.005
				c0.141,2.366-1.565,4.37-3.719,4.37H432V356C432,350,438.378,349.25,441.764,349.25"/>
			<path style="fill:#D3562F;" d="M412.125,366.75h75.25v1.375c0,1.795-1.455,3.25-3.25,3.25h-68.75c-1.795,0-3.25-1.455-3.25-3.25
				V366.75z"/>
			<path style="fill:#D3562F;" d="M480,352.75h-18.834c-0.874,0-1.583,0.728-1.583,1.625v6.5c0,0.897,0.709,1.625,1.583,1.625H480
				c0.875,0,1.583-0.728,1.583-1.625v-6.5C481.583,353.478,480.875,352.75,480,352.75"/>
			<path style="fill:#444449;" d="M397.375,375c16.63-2.474,57.62-2.474,74.25,0c4.128,0.614,9.208,3.019,9.208,9.208
				c0,4.027-3.265,7.292-7.291,7.292h-79.084c-4.026,0-7.291-3.265-7.291-7.292C387.167,378.019,393.247,375.614,397.375,375"/>
			<path style="fill:#2B2B33;" d="M460.516,387.091c0-1.882,1.526-3.408,3.409-3.408c1.883,0,3.408,1.526,3.408,3.408
				c0,1.883-1.525,3.409-3.408,3.409C462.042,390.5,460.516,388.974,460.516,387.091"/>
			<path style="fill:#2B2B33;" d="M453.856,387.091c0-1.882,1.526-3.408,3.409-3.408c1.883,0,3.408,1.526,3.408,3.408
				c0,1.883-1.525,3.409-3.408,3.409C455.383,390.5,453.856,388.974,453.856,387.091"/>
			<path style="fill:#2B2B33;" d="M447.197,387.091c0-1.882,1.526-3.408,3.409-3.408c1.883,0,3.408,1.526,3.408,3.408
				c0,1.883-1.525,3.409-3.408,3.409C448.724,390.5,447.197,388.974,447.197,387.091"/>
			<path style="fill:#2B2B33;" d="M440.538,387.091c0-1.882,1.526-3.408,3.409-3.408c1.883,0,3.408,1.526,3.408,3.408
				c0,1.883-1.525,3.409-3.408,3.409C442.064,390.5,440.538,388.974,440.538,387.091"/>
			<path style="fill:#2B2B33;" d="M433.879,387.091c0-1.882,1.526-3.408,3.409-3.408c1.883,0,3.408,1.526,3.408,3.408
				c0,1.883-1.525,3.409-3.408,3.409C435.405,390.5,433.879,388.974,433.879,387.091"/>
			<path style="fill:#2B2B33;" d="M427.22,387.091c0-1.882,1.526-3.408,3.409-3.408c1.883,0,3.409,1.526,3.409,3.408
				c0,1.883-1.526,3.409-3.409,3.409C428.746,390.5,427.22,388.974,427.22,387.091"/>
			<path style="fill:#2B2B33;" d="M420.56,387.091c0-1.882,1.526-3.408,3.409-3.408c1.883,0,3.409,1.526,3.409,3.408
				c0,1.883-1.526,3.409-3.409,3.409C422.087,390.5,420.56,388.974,420.56,387.091"/>
			<path style="fill:#2B2B33;" d="M413.901,387.091c0-1.882,1.526-3.408,3.409-3.408c1.883,0,3.409,1.526,3.409,3.408
				c0,1.883-1.526,3.409-3.409,3.409C415.428,390.5,413.901,388.974,413.901,387.091"/>
			<path style="fill:#2B2B33;" d="M407.242,387.091c0-1.882,1.526-3.408,3.409-3.408c1.883,0,3.409,1.526,3.409,3.408
				c0,1.883-1.526,3.409-3.409,3.409C408.769,390.5,407.242,388.974,407.242,387.091"/>
			<path style="fill:#2B2B33;" d="M400.583,387.091c0-1.882,1.526-3.408,3.409-3.408s3.409,1.526,3.409,3.408
				c0,1.883-1.526,3.409-3.409,3.409S400.583,388.974,400.583,387.091"/>
			<path style="fill:#807F84;" d="M395.458,387.5c-1.814,0-4.291-1.353-4.291-3.021c0-3.608,5.202-4.599,6.797-4.816
				c7.626-1.04,21.285-0.662,36.536-0.662s28.91-0.378,36.536,0.662c3.847,0.526,5.797,2.146,5.797,4.816
				c0,1.668-2.477,3.021-4.291,3.021H395.458z"/>
			<path style="fill:#2B2B33;" d="M417.917,378.5c0-1.473,1.193-2.667,2.666-2.667c1.473,0,2.667,1.194,2.667,2.667
				c0,1.473-1.194,2.667-2.667,2.667C419.11,381.167,417.917,379.973,417.917,378.5"/>
			<path style="fill:#2B2B33;" d="M444.917,378.5c0-1.473,1.193-2.667,2.666-2.667c1.473,0,2.667,1.194,2.667,2.667
				c0,1.473-1.194,2.667-2.667,2.667C446.11,381.167,444.917,379.973,444.917,378.5"/>
			<path style="fill:#2B2B33;" d="M466.667,383.917c0-2.899,2.351-5.25,5.25-5.25c2.899,0,5.25,2.351,5.25,5.25
				c0,2.899-2.351,5.25-5.25,5.25C469.018,389.167,466.667,386.816,466.667,383.917"/>
			<path style="fill:#807F84;" d="M470.167,383.917c0-0.967,0.783-1.75,1.75-1.75c0.966,0,1.75,0.783,1.75,1.75
				c0,0.966-0.784,1.75-1.75,1.75C470.95,385.667,470.167,384.883,470.167,383.917"/>
			<path style="fill:#2B2B33;" d="M390.833,383.917c0-2.899,2.351-5.25,5.25-5.25c2.899,0,5.25,2.351,5.25,5.25
				c0,2.899-2.351,5.25-5.25,5.25C393.184,389.167,390.833,386.816,390.833,383.917"/>
			<path style="fill:#807F84;" d="M394.333,383.917c0-0.967,0.784-1.75,1.75-1.75c0.967,0,1.75,0.783,1.75,1.75
				c0,0.966-0.783,1.75-1.75,1.75C395.117,385.667,394.333,384.883,394.333,383.917"/>
		</g>
		<g>
			<rect x="172.312" y="351.875" style="fill:#543229;" width="1.5" height="37.375"/>
			<path style="fill:#FFDD50;" d="M170.813,351.625c0-1.277,1.035-2.313,2.313-2.313c1.277,0,2.312,1.035,2.312,2.313
				c0,1.277-1.035,2.314-2.312,2.314C171.848,353.939,170.813,352.902,170.813,351.625"/>
			<rect x="212.75" y="351.875" style="fill:#543229;" width="1.5" height="37.375"/>
			<path style="fill:#FFDD50;" d="M211.25,351.625c0-1.277,1.035-2.313,2.313-2.313c1.277,0,2.312,1.035,2.312,2.313
				c0,1.277-1.035,2.314-2.312,2.314C212.285,353.939,211.25,352.902,211.25,351.625"/>
			<rect x="165" y="355.625" style="fill:#FFDD50;" width="54" height="9.602"/>
			<polygon style="fill:#D3562F;" points="172.297,365.227 166.75,365.227 172.577,355.625 178.125,355.625 			"/>
			<polygon style="fill:#D3562F;" points="185.735,365.227 180.188,365.227 186.015,355.625 191.563,355.625 			"/>
			<polygon style="fill:#D3562F;" points="199.172,365.227 193.625,365.227 199.452,355.625 205,355.625 			"/>
			<polygon style="fill:#D3562F;" points="212.61,365.227 207.063,365.227 212.89,355.625 218.438,355.625 			"/>
			<rect x="165" y="371.21" style="fill:#FFDD50;" width="54" height="9.602"/>
			<polygon style="fill:#D3562F;" points="172.297,380.813 166.75,380.813 172.577,371.211 178.125,371.211 			"/>
			<polygon style="fill:#D3562F;" points="185.735,380.813 180.188,380.813 186.015,371.211 191.563,371.211 			"/>
			<polygon style="fill:#D3562F;" points="199.172,380.813 193.625,380.813 199.452,371.211 205,371.211 			"/>
			<polygon style="fill:#D3562F;" points="212.61,380.813 207.063,380.813 212.89,371.211 218.438,371.211 			"/>
		</g>
		<g>
			<g>
				<path style="fill:#7F2C18;" d="M54.673,375.717c-7.547,0-13.688,6.081-13.688,13.557h4c0-5.27,4.346-9.557,9.688-9.557
					c5.342,0,9.688,4.287,9.688,9.557h4C68.361,381.798,62.22,375.717,54.673,375.717"/>
				<path style="fill:#7F2C18;" d="M89.65,441.19H23.102c-3.25,0-5.852-2.697-5.735-5.946l1.585-43.855
					c0.112-3.087,2.647-5.531,5.736-5.531H86.48c3.009,0,5.507,2.324,5.724,5.325l3.17,43.855
					C95.614,438.361,92.983,441.19,89.65,441.19"/>
				<path style="fill:#D3562F;" d="M24.688,385.856c-3.089,0-5.624,2.444-5.735,5.531l-1.586,43.855
					c-0.117,3.249,2.485,5.946,5.736,5.946h59.823c2.298,0,4.18-1.819,4.248-4.116c0.374-12.679,0.262-41.102,0.208-51.13
					c-0.296-0.047-0.594-0.087-0.902-0.087H24.688z"/>
				<path style="fill:#B54324;" d="M87.382,385.943c-0.296-0.047-0.594-0.087-0.902-0.087H24.688c-2.631,0-4.853,1.775-5.526,4.207
					c3.272,5.685,11.352,12.5,31.199,14.043c18.033,1.402,29.818-5.058,37.05-11.728C87.402,389.827,87.391,387.623,87.382,385.943"
					/>
				<path style="fill:#FFDD50;" d="M52.392,398.044c-1.95,0-3.531,1.818-3.531,4.062v7.063c0,2.244,1.581,4.063,3.531,4.063
					c1.95,0,3.531-1.819,3.531-4.063v-7.063C55.923,399.862,54.342,398.044,52.392,398.044"/>
				<path style="fill:#B54324;" d="M54.673,405.638c0-0.457-0.546-0.828-1.22-0.828h-2.121c-0.674,0-1.22,0.371-1.22,0.828
					s0.546,0.828,1.22,0.828h2.121C54.127,406.466,54.673,406.095,54.673,405.638"/>
			</g>
			<g>
				<g>
					<path style="fill:#A53245;" d="M114.25,227.75c0,0-4.333-2.083-10,4.25s-30,30.083-29.167,34.5
						c0.834,4.417,11.25,26.75,13.834,32.333c2.583,5.584,3.166,6.5,3.166,6.5h14.667c0,0-17.75-35.708-16.5-36.958
						s22.125-23.125,22.125-23.125L114.25,227.75z"/>
					<g>
						<polygon style="fill:#F7F6F0;" points="128.063,306.851 50.881,307.691 51.91,289.899 128.063,288.938 						"/>
						<path style="fill:#D1CFC9;" d="M115.847,295.085c4.071,0.021,8.143,0.07,12.215,0.125v-6.272l-76.153,0.962l-0.341,5.909
							C72.995,295.709,94.421,294.977,115.847,295.085z"/>
						<path style="fill:#FFCD02;" d="M55.701,294.875h-0.04H55.701z"/>
						<path style="fill:#4B50AF;" d="M55.662,294.875L55.662,294.875c-0.67-4.241-2.406-5.074-3.752-5
							c-1.077,0.06-2.328,1.829-2.726,4.939c-0.209,1.628-0.188,3.592,0.224,5.811c0.31,1.676,1.317,2.755,2.053,2.564
							c0.165-0.044,0.322-0.131,0.449-0.314c1.008-1.458,1.197-6.18,0.547-8H55.662z"/>
						<path style="fill:#626DCC;" d="M49.407,300.625c-0.412-2.22-0.432-4.184-0.224-5.811L46,294.5c0,0-1.063,13.387,5.049,13.188
							c2.091-0.068,3.478-1.947,4.222-4.499H51.46C50.724,303.38,49.718,302.301,49.407,300.625"/>
						<path style="fill:#D1CFC9;" d="M55.818,296.063c-0.044-0.428-0.098-0.816-0.157-1.186h-3.205
							c0.651,1.819,0.461,6.54-0.547,7.999c-0.127,0.183-0.283,0.27-0.449,0.313h3.811
							C55.892,301.064,56.067,298.476,55.818,296.063"/>
					</g>
					<g>
						<polygon style="fill:#FFFFFF;" points="125.375,290.038 63.678,290.879 64.5,273.087 125.375,272.125 						"/>
						<path style="fill:#F7F6F0;" d="M87.378,283.081c-7.321-0.243-15.181-0.62-22.313-2.454c-0.278-0.071-0.584-0.15-0.903-0.234
							l-0.484,10.486l61.697-0.841V272.47C115.012,281.068,101.036,283.535,87.378,283.081z"/>
						<path style="fill:#FFCD02;" d="M67.531,278.063h-0.032H67.531z"/>
						<path style="fill:#6D7FCC;" d="M67.499,278.063L67.499,278.063c-0.535-4.241-1.923-5.074-3-5
							c-0.859,0.06-1.859,1.829-2.178,4.939c-0.167,1.628-0.151,3.592,0.178,5.811c0.249,1.676,1.054,2.755,1.642,2.564
							c0.132-0.044,0.257-0.131,0.358-0.314c0.807-1.458,0.958-6.18,0.438-8H67.499z"/>
						<path style="fill:#80A0E5;" d="M62.5,283.813c-0.329-2.22-0.346-4.184-0.179-5.811h-2.009c0,0-1.385,13.073,3.5,12.874
							c1.672-0.068,2.781-1.947,3.376-4.499h-3.046C63.553,286.567,62.749,285.488,62.5,283.813"/>
						<path style="fill:#C6C4BD;" d="M67.625,279.25c-0.035-0.428-0.079-0.816-0.125-1.186h-2.563
							c0.521,1.819,0.369,6.54-0.437,7.999c-0.101,0.183-0.226,0.27-0.358,0.313h3.046C67.683,284.251,67.824,281.663,67.625,279.25
							"/>
					</g>
					<g>
						<path style="fill:#DD9F85;" d="M90.834,315.917c0,0-4.5-0.125-5.958-8.625l6.795-0.045L90.834,315.917z"/>
						<path style="fill:#F4C29D;" d="M99.5,313c0,0,0.042,1.583,2,1.875s4.208-0.5,4.167-5.875c-0.042-5.375-1-5.958-2.75-5.917
							c-1.75,0.042-3.292,1.292-3.667,4.459C98.875,310.708,99.5,313,99.5,313"/>
						<path style="fill:#F4C29D;" d="M103.5,313c0,0,0.042,1.583,2,1.875s4.208-0.5,4.167-5.875c-0.042-5.375-1-5.958-2.75-5.917
							c-1.75,0.042-3.292,1.292-3.667,4.459C102.875,310.708,103.5,313,103.5,313"/>
						<path style="fill:#F4C29D;" d="M94.402,313.414c0,0,0.041,1.723,1.951,2.04c1.909,0.317,4.104-0.544,4.063-6.391
							c-0.04-5.847-0.975-6.482-2.682-6.436c-1.707,0.046-3.21,1.405-3.576,4.85C93.794,310.921,94.402,313.414,94.402,313.414"/>
						<path style="fill:#F4C29D;" d="M89.986,313.331c0,0-1.062,2.27,0.848,2.586c1.909,0.317,5.207-1.091,5.166-6.938
							c-0.04-5.847-1.462-6.414-3.166-6.313c-2.068,0.122-2.052,1.305-2.417,4.75C90.051,310.861,89.986,313.331,89.986,313.331"/>
					</g>
				</g>
				<g>
					<g>
						<path style="fill:#A53245;" d="M122.5,430.438c0,0,1,1.25,0.562,6.936c-0.437,5.689,0.313,6.377-4.062,6.814
							c-4.375,0.439-26.187,0.439-28.187,0c-2.001-0.436-1.563-2.186-1.563-3.311s-1.125-3.377,3.75-5.377
							c4.875-1.998,13.438-3.811,16.125-5.186S122.5,430.438,122.5,430.438"/>
						<path style="fill:#842136;" d="M122.859,440.772c-2.041,0.072-6.339,0.182-15.234,0.291
							c-15.25,0.189-18.375-0.186-18.375-0.186c0,1.125-0.437,2.875,1.563,3.311c2,0.439,23.812,0.439,28.187,0
							C122.283,443.859,122.68,443.39,122.859,440.772"/>
					</g>
					<g>
						<path style="fill:#A53245;" d="M143.811,430.438c0,0-1,1.25-0.562,6.936c0.437,5.689-0.313,6.377,4.062,6.814
							c4.375,0.439,29.188,0.439,31.188,0c2-0.436,1.562-2.186,1.562-3.311s1.125-3.377-3.75-5.377
							c-4.875-1.998-16.438-2.811-19.125-4.186C154.499,429.938,143.811,430.438,143.811,430.438"/>
						<path style="fill:#842136;" d="M143.452,440.772c2.041,0.072,6.339,0.182,15.234,0.291c15.25,0.189,21.375-0.186,21.375-0.186
							c0,1.125,0.437,2.875-1.563,3.311c-2,0.439-26.812,0.439-31.187,0C144.028,443.859,143.631,443.39,143.452,440.772"/>
					</g>
					<path style="fill:#543229;" d="M107,307.333c0,0-0.833,123.167-0.167,123.667c0.667,0.5,16.167,0.833,16.667,0.167
						c0.5-0.667,3.167-105.667,3.167-105.667L139.5,325c0,0,3.333,106.167,3.833,107s16.5,0.833,16.5,0s0.667-124.167,0.667-124.167
						L107,307.333z"/>
				</g>
				<g>
					<polyline style="fill:#DD9F85;" points="140.5,217.334 140.5,226.251 126.5,226.251 126.5,211.001 					"/>
					<g>
						<path style="fill:#F4C29D;" d="M168.083,194.25c0-0.269-1.947-1.618-3.75-2.811V167H112v8.502
							c-0.042,21.576,12.083,44.63,34.979,44.498h3.917c7.421,0,13.437-6.377,13.437-14.244v-7.866
							C165.905,196.522,168.083,194.57,168.083,194.25"/>
						<path style="fill:#DD9F85;" d="M164.333,176.674V167H112v8.384C129.411,176.451,146.896,176.29,164.333,176.674z"/>
						<g>
							<path style="fill:#543229;" d="M124.666,214.584c-0.749,0.035-11-4.667-14.167-23.083
								c-3.166-18.417,0.334-24.584,0.334-24.584h28c0,0,0.083,15-0.834,20.167l-4.5,1.5c0,0-0.916-4.667-3.75-6.25
								c-2.833-1.583-8,0.167-7.583,8.167s4.25,10,8.917,8.416C135.749,197.334,128.249,214.417,124.666,214.584"/>
							<path style="fill:#3F231D;" d="M138.731,176.285c0.126-4.899,0.102-9.369,0.102-9.369h-28c0,0-1.3,2.3-1.597,8.267
								C119.05,175.861,128.888,176.133,138.731,176.285z"/>
						</g>
						<path style="fill:#3F231D;" d="M134.583,190.667c-0.077-0.194,0.57-0.631,1.444-0.976c0.875-0.345,1.646-0.468,1.723-0.274
							c0.076,0.194-0.571,0.631-1.445,0.977C135.432,190.738,134.661,190.86,134.583,190.667"/>
						<path style="fill:#3F231D;" d="M135.5,192.75c-0.068-0.197,0.361-0.525,0.96-0.732c0.598-0.207,1.139-0.215,1.207-0.018
							c0.068,0.197-0.362,0.525-0.96,0.732C136.108,192.939,135.568,192.947,135.5,192.75"/>
						<g>
							<path style="fill:#3F231D;" d="M160.5,206.834c0.018,0.248-2.387,0.772-5.474,0.489c-0.759-0.074-1.578-0.307-2.178-0.692
								c-0.601-0.38-1.045-0.824-1.371-1.222c-0.647-0.805-0.843-1.425-0.727-1.492c0.122-0.075,0.522,0.384,1.238,0.996
								c0.359,0.301,0.799,0.638,1.32,0.912c0.525,0.273,1.109,0.419,1.838,0.498C158.031,206.59,160.488,206.529,160.5,206.834"/>
							<path style="fill:#3F231D;" d="M152,178.334c-0.131-0.062,0.102-0.919,0.816-1.878c0.366-0.465,0.868-0.981,1.591-1.252
								c0.777-0.262,1.482-0.136,2.065,0.029c1.166,0.385,1.597,0.9,1.788,1.164c0.181,0.29,0.1,0.419-0.01,0.52
								c-0.113,0.105-0.222,0.177-0.493,0.074c-0.278-0.085-0.707-0.412-1.605-0.705c-0.441-0.135-1.012-0.229-1.434-0.118
								c-0.467,0.12-0.94,0.462-1.325,0.811C152.62,177.696,152.137,178.407,152,178.334"/>
							<path style="fill:#3F231D;" d="M155.083,185c0-1.795,0.597-3.25,1.333-3.25c0.736,0,1.334,1.455,1.334,3.25
								c0,1.795-0.598,3.25-1.334,3.25C155.681,188.25,155.083,186.795,155.083,185"/>
						</g>
					</g>
					<g>
						<path style="fill:#ED8037;" d="M142.094,140.125c14.351,1.802,23.187,12.188,23.187,27.223v1.299
							c0,2.404-3.874,4.353-6.187,4.353h-43.5c-3.812,0.375-4.797-0.065-6.104-2.083c-0.709-1.094-0.025-4.544-0.084-6.089
							C108.854,150.091,126.499,138.167,142.094,140.125"/>
						<path style="fill:#CE5228;" d="M158.913,148.608c0.085,3.788-2.335,6.85-6.083,9.572c-5.649,4.104-12.283,6.287-19.275,6.358
							c-7.117,0.072-15.333,1.563-21.51-2.889c-0.935-0.674-1.58-1.449-2.006-2.279c-0.476,1.759-0.703,3.586-0.632,5.458
							c0.059,1.545-0.625,4.995,0.084,6.089c1.307,2.018,2.292,2.458,6.104,2.083h43.5c2.313,0,6.187-1.949,6.187-4.353v-1.299
							C165.281,159.738,163.01,153.326,158.913,148.608z"/>
						<path style="fill:#ED8037;" d="M109.438,173.5h61.344c10.875,0,15.802-5.458-5.448-7.333c0,0-1.927,3.083-17.177,4.083
							s-38.594,0.5-38.594,0.5s-0.656-0.031-0.656,1.094S108.813,173.375,109.438,173.5"/>
						<path style="fill:#FFDD50;" d="M122.037,149.815l-0.639-0.77c-0.176-0.212-0.49-0.241-0.703-0.066
							c-0.073,0.061-1.821,1.512-3.192,3.545c-0.073,0.11-0.102,0.245-0.076,0.375c0.025,0.131,0.101,0.246,0.212,0.32l0.83,0.558
							c0.086,0.058,0.182,0.085,0.279,0.085c0.16,0,0.318-0.077,0.415-0.22c1.188-1.764,2.792-3.109,2.809-3.123
							C122.183,150.343,122.213,150.027,122.037,149.815"/>
						<path style="fill:#FFDD50;" d="M116.626,154.841c-0.227-0.154-0.536-0.099-0.693,0.128c-0.013,0.018-1.251,1.825-1.929,3.411
							c-0.108,0.254,0.01,0.547,0.263,0.656l0.919,0.393c0.07,0.03,0.146,0.044,0.221,0.04c0.054-0.003,0.11-0.015,0.161-0.035
							c0.123-0.05,0.222-0.146,0.274-0.268c0.556-1.3,1.621-2.889,1.743-3.071c0.154-0.228,0.094-0.537-0.133-0.691L116.626,154.841
							z"/>
					</g>
				</g>
				<g>
					<path style="fill:#A53245;" d="M141.292,222.334h-15.917c-1.495,0-2.708,1.153-2.708,2.576v10.424h21.333V224.91
						C143.999,223.486,142.788,222.334,141.292,222.334"/>
					<g>
						<path style="fill:#ED8037;" d="M111.231,227.328l38.743-0.893c3.461-0.146,12.342,1.632,12.321,5.097l-0.462,78.635
							l-55.667-0.667l0.951-73.932C107.117,230.583,108.951,227.424,111.231,227.328"/>
						<polygon style="fill:#FFDD50;" points="162.207,246.625 106.975,246.625 106.798,260.375 162.126,260.375 						"/>
						<polygon style="fill:#FFDD50;" points="106.485,284.75 161.983,284.75 162.064,271 106.662,271 						"/>
						<path style="fill:#D3562F;" d="M161.3,230.987c-0.667,0.835-1.304,1.69-1.828,2.622c-2.416,4.292-3.53,8.734-3.67,13.646
							c-0.229,8.062,0.065,16.136-0.478,24.19c-0.658,9.778-2.487,21.723-10.87,28.069c-6.861,5.195-17.717,6.066-25.137,1.449
							c-6.575-4.091-9.917-11.499-11.595-18.8c-0.462-2.011-0.831-4.031-1.127-6.057l-0.429,33.393l55.667,0.667l0.462-78.635
							c0.003-0.439-0.14-0.852-0.395-1.236C161.599,230.625,161.367,230.904,161.3,230.987z"/>
						<path style="fill:#ED8037;" d="M107.392,232.456c-0.175,0.934-0.275,1.973-0.275,3.112l-0.006,0.454
							C107.208,234.833,107.302,233.643,107.392,232.456z"/>
						<path style="fill:#EAAA42;" d="M155.802,247.255c-0.125,4.372-0.097,8.747-0.13,13.12h6.454l0.081-13.75h-6.371
							C155.827,246.836,155.808,247.043,155.802,247.255z"/>
						<path style="fill:#FFDD50;" d="M107.722,282.164c-0.462-2.011-0.831-4.029-1.126-6.055l-0.111,8.641h1.907
							C108.144,283.891,107.92,283.026,107.722,282.164z"/>
						<path style="fill:#EAAA42;" d="M155.325,271.445c-0.285,4.239-0.793,8.884-1.957,13.305h8.615l0.081-13.75h-6.715
							C155.34,271.148,155.335,271.297,155.325,271.445z"/>
					</g>
				</g>
				<g>
					<path style="fill:#F4C29D;" d="M218.313,233.813c0,0,7.312-4.25,10.5-5.875c3.188-1.625,4.313-1.062,5.063,0.5
						c0.749,1.562-6,8.25-13.751,10.75"/>
					<g>
						<path style="fill:#F4C29D;" d="M161.25,229.5c-3.364-0.274-7.417,10.083-3.5,18.75c3.917,8.667,14.167,28.917,20.917,32.833
							c6.75,3.917,11.416-0.333,18.416-13.916c7-13.584,12-22,12-22l-10.333-6.834c0,0-15.333,26.25-16.083,24.917
							S165.333,229.833,161.25,229.5"/>
						<g>
							<path style="fill:#A53245;" d="M184.231,261.712c-0.855,1.154-1.434,1.77-1.565,1.538
								c-0.75-1.333-17.333-33.416-21.416-33.75c-3.364-0.274-7.417,10.084-3.5,18.75c3.916,8.667,14.166,28.917,20.916,32.833
								c6.222,3.61,10.677,0.262,16.817-10.917C192.597,265.248,186.874,262.679,184.231,261.712"/>
							<path style="fill:#842136;" d="M198.763,263.934c-2.125-2.372-6.075-6.017-11.142-7.255c-1.319,2.061-2.504,3.839-3.39,5.033
								c2.643,0.967,8.366,3.536,11.253,8.454c0.522-0.95,1.051-1.935,1.599-2.999C197.659,266.049,198.216,264.98,198.763,263.934"
								/>
						</g>
						<g>
							<path style="fill:#F4C29D;" d="M198.5,240.563c0,0-3.063-3.25-0.437-11.875c2.625-8.625,3.5-11.062,6.187-10.312
								c2.688,0.75,1.687,5.812,0.875,8.499c-0.813,2.688-1,3.375-0.188,2.688c0.813-0.688,10.938-5.937,16.25-8
								c5.313-2.062,5.5,0.563,4.938,1.875c-0.563,1.312-9.563,5.437-9.375,5.875c0.187,0.437,3.437,9.062,3.5,9.563
								c0.062,0.5,4.062-1.813,6.375-3.313c2.312-1.5,4.875,0.625,2.625,2.937c-2.25,2.313-9.5,6.188-15,7.875
								c-5.5,1.688-7.375,0.313-10.25-1.375C201.125,243.313,200.25,242.813,198.5,240.563"/>
							<path style="fill:#F4C29D;" d="M218.188,234.5c0,0,7.312-3.938,12.313-7.062c4.999-3.126,1-5.751-1.563-5.063
								c-2.562,0.687-13.25,7.25-13.25,7.25"/>
						</g>
					</g>
				</g>
			</g>
		</g>
		<g>
			<g>
				<path style="fill:#FFFFFF;" d="M290,201c0,0,9.167,96.667,9.333,100c0.167,3.333,13.5,5.167,40,5.167s59,1.166,60.667-2.167
					s4.667-94.667,4.667-94.667s-4.667,2.667-23,2C363.333,210.667,302.333,210,290,201"/>
				<path style="fill:#F7F6F0;" d="M400.745,210.457c-0.298,2.007-0.592,4.015-0.845,6.03c-0.988,7.868-2.065,15.74-3.798,23.484
					c-1.749,7.819-3.923,16.279-8.605,22.927c-3.48,4.942-8.712,8.467-14.951,6.674c-8.584-2.467-12.963-10.354-18.334-16.799
					c-2.471-2.964-5.941-7.216-10.209-7.195c-5.317,0.026-9.374,5.533-11.468,9.847c-2.084,4.291-3.701,10.007-7.767,12.919
					c-4.464,3.198-10.161,2.222-14.607-0.496c-6.448-3.942-11.455-9.999-15.428-16.724c2.27,24.133,4.519,48.24,4.6,49.876
					c0.167,3.333,13.5,5.167,40,5.167s59,1.166,60.667-2.167s4.667-94.667,4.667-94.667S403.658,209.908,400.745,210.457z"/>
			</g>
			<g>
				<g>
					<g>
						<path style="fill:#D3562F;" d="M381.083,430.75c0,0-0.083,9.167-0.25,10.5c-0.166,1.333-0.75,2.75,2.417,2.917
							c3.167,0.166,28.583,2.166,30.25,0c1.667-2.167,0.583-0.917,0.917-2.667c0.333-1.75,0.333-4.5-9.75-7
							c-6.749-1.673-10.75-2.5-10.75-3.417C393.917,430.167,384.5,430,381.083,430.75"/>
						<path style="fill:#ED8037;" d="M383.25,444.167c3.167,0.166,28.583,2.166,30.25,0c1.542-2.005,0.731-1.089,0.866-2.327
							c-1.966,0.443-6.43,0.972-16.283,0.66c-15.833-0.5-17.25-1.25-17.25-1.25C380.667,442.583,380.083,444,383.25,444.167"/>
					</g>
					<g>
						<path style="fill:#D3562F;" d="M358.896,430.357c0,0,1.522,7.06,0.604,11.56c-0.289,1.42,0.253,3.287-2.916,3.416
							c-3.17,0.129-28.757,0.962-31-0.833c-0.834-0.667-0.281-0.522-0.584-2.417c-0.303-1.896,2.125-4.711,12.25-7.25
							c6.776-1.699,9.067-2.926,9.084-3.916C346.35,429.927,355.493,429.493,358.896,430.357"/>
						<path style="fill:#ED8037;" d="M356.583,445.333c2.414-0.099,2.675-1.204,2.79-2.355c-5.444,0.651-20.951,0.931-29.04,0.439
							c-2.117-0.129-3.851-0.515-5.294-1.023c0.191,1.549-0.237,1.481,0.544,2.106C327.827,446.295,353.414,445.463,356.583,445.333
							"/>
					</g>
					<path style="fill:#294291;" d="M400,306.667c0,0-3.333,122.166-3.333,123.666S395,432,389,432s-8.667,0.667-8.667-0.5
						S380,327.667,380,327.667h-11.333c0,0-8.334,103-8.834,103.833s-14.666,0.667-15.833-0.333s4.333-123.834,4.333-123.834
						L400,306.667z"/>
				</g>
				<path style="fill:#294291;" d="M390.5,227.417c0,0,10.167-0.833,14.583,4.333c4.417,5.167,4.5,15.167,4.5,28.085
					c0,12.916,0.917,30.832-5.583,30.832s-7.75-8.75-7.75-8.75L390.5,227.417z"/>
				<g>
					<polyline style="fill:#DD9F85;" points="384.625,215.188 384.625,228.188 371.686,228.188 371.686,218.438 					"/>
					<g>
						<path style="fill:#F4C29D;" d="M365.354,223h-3.917c-7.421,0-13.438-6.016-13.438-13.438V173h52.333v8.021
							C400.375,201.375,388.25,223.125,365.354,223"/>
						<path style="fill:#DD9F85;" d="M393.169,183.079c2.388,0.047,4.775,0.101,7.164,0.155V178H348v4.938
							C363.056,182.898,378.119,182.783,393.169,183.079z"/>
						<g>
							<path style="fill:#3F231D;" d="M349.636,211.092c-0.011,0.202,1.457,0.63,3.341,0.399c0.463-0.06,0.962-0.251,1.328-0.565
								c0.367-0.31,0.638-0.672,0.837-0.997c0.395-0.657,0.515-1.163,0.443-1.218c-0.074-0.061-0.318,0.313-0.756,0.813
								c-0.219,0.246-0.487,0.52-0.806,0.745c-0.319,0.223-0.676,0.342-1.12,0.406C351.143,210.894,349.644,210.844,349.636,211.092
								"/>
							<path style="fill:#3F231D;" d="M355.508,182.084c0.119-0.051-0.093-0.75-0.744-1.533c-0.334-0.379-0.792-0.801-1.451-1.022
								c-0.709-0.214-1.353-0.111-1.884,0.023c-1.063,0.314-1.457,0.735-1.632,0.95c-0.164,0.237-0.091,0.342,0.009,0.424
								c0.104,0.086,0.204,0.145,0.451,0.061c0.253-0.07,0.645-0.336,1.464-0.575c0.402-0.11,0.923-0.187,1.309-0.097
								c0.426,0.098,0.857,0.377,1.208,0.662C354.942,181.564,355.383,182.144,355.508,182.084"/>
							<path style="fill:#3F231D;" d="M352.695,187.524c0-1.465-0.545-2.652-1.216-2.652c-0.672,0-1.217,1.188-1.217,2.652
								c0,1.465,0.545,2.652,1.217,2.652C352.15,190.177,352.695,188.989,352.695,187.524"/>
						</g>
						<g>
							<path style="fill:#543229;" d="M404.875,201.875l-6.744-5.781c0.17-0.562,0.33-1.127,0.48-1.696
								c1.151-4.362,1.732-8.903,1.722-13.377V173h-40.897l-0.686,17.625l2.875,1.5c0,0,0-8.75,6.25-7.75s6.125,10.75,2.875,14.75
								s-7.125,0-7.125,0s2,12.75,4.5,14.75c1.455,1.164,10.828,1.184,19.125,0.554c5.957-0.452,11.36-1.239,12.875-2.179l-6-6
								L404.875,201.875z"/>
							<path style="fill:#3F231D;" d="M393.169,183.079c2.388,0.047,4.775,0.101,7.164,0.155V178h-40.897l-0.191,4.909
								C370.555,182.873,381.865,182.856,393.169,183.079z"/>
						</g>
					</g>
				</g>
				<path style="fill:#294291;" d="M385.25,223.938h-14.5c-1.726,0-3.125,1.234-3.125,2.756v1.488c0,1.522,1.399,2.756,3.125,2.756
					h14.5c1.726,0,3.125-1.234,3.125-2.756v-1.488C388.375,225.171,386.976,223.938,385.25,223.938"/>
				<g>
					<path style="fill:#ED8037;" d="M401.875,303.167h-0.25l1.261-67.463c0.335-9.308-7.119-9.037-16.434-9.037h-19.016
						c-9.915,0-18.41,2.083-18.41,4.667l-2.275,75.875c-0.046,1.435,1.105,2.624,2.541,2.624h0.333H401.5h0.375
						c1.588,0,2.875-1.287,2.875-2.875v-0.916C404.75,304.454,403.463,303.167,401.875,303.167"/>
					<polygon style="fill:#FFDD50;" points="402.725,244.334 348.637,244.334 348.182,259.501 402.44,259.501 					"/>
					<polygon style="fill:#FFDD50;" points="347.417,285 401.964,285 402.248,269.833 347.872,269.833 					"/>
					<path style="fill:#D3562F;" d="M401.875,303.167h-0.25l0.055-2.948c-0.866,0.407-1.82,0.716-2.877,0.894
						c-5.855,0.982-12.26,0.584-18.136,0.102c-3.835-0.314-7.829-0.675-11.56-1.657c-1.41-0.372-3.853-0.896-4.662-2.322
						c-1.651-2.903,3.796-4.565,5.866-4.626c2.046-0.059,4.11,0.002,6.148-0.238c1.016-0.12,2.225-0.243,3.143-0.744
						c0.76-0.414,1.817-1.74,0.786-2.566c-1.54-1.234-4.417-1.334-6.279-1.648c-2.2-0.371-4.482-0.645-6.615-1.318
						c-3.967-1.251-5.85-5.729-6.74-9.494c-1.335-5.638-1.31-11.483-1.137-17.241c0.181-5.98,0.795-12.251,0.057-18.196
						c-0.514-4.136-1.851-8.876-6.012-10.703c-0.94-0.413-1.907-0.743-2.859-1.096c-1.124,0.599-1.776,1.265-1.776,1.971
						l-2.275,75.875c-0.046,1.435,1.105,2.624,2.541,2.624h52.583c1.588,0,2.875-1.287,2.875-2.875v-0.916
						C404.75,304.454,403.463,303.167,401.875,303.167z"/>
					<path style="fill:#EAAA42;" d="M359.617,259.357c0.148-4.927,0.58-10.048,0.319-15.024h-11.3l-0.455,15.167h11.432
						C359.615,259.453,359.615,259.405,359.617,259.357z"/>
					<path style="fill:#EAAA42;" d="M360.754,276.599c-0.527-2.228-0.838-4.49-1.016-6.766h-11.866L347.417,285h17.965
						C362.825,283.097,361.469,279.619,360.754,276.599z"/>
				</g>
				<g>
					<g>
						<path style="fill:#F4C29D;" d="M330.333,268.167c-1.353-0.451-26.75-19.083-26.75-19.083L296.667,259
							c0,0,12.5,13.5,24.083,22.083c11.583,8.584,17.333,6.834,24.333-7.416s9.334-19.833,10.667-24.25
							c1.333-4.417,3-18.25-5.667-19C343.333,229.833,332.833,269,330.333,268.167"/>
						<path style="fill:#F4C29D;" d="M306.75,253c0,0,2.5-3.063,2-8.938c-0.5-5.875,0.125-13.312-3.625-13.124
							c-3.75,0.187-1.75,10.437-2,11.187s-9.25-11.062-11.564-12.437c-2.311-1.375-4.624,2.187-2.749,4.812s5.063,6.625,5.063,6.625
							s-4.125,9.875-4.5,10s-2.188-3.187-3.5-3.187s-2.75,1.374-1.25,3.874s7.311,8.5,10.25,10.001
							C297.811,263.314,302.125,260.875,306.75,253"/>
						<path style="fill:#F4C29D;" d="M289.625,251.75c0,0-4.188-4.75-4.875-6.625s0.288-2.778,1.061-3.438
							c1.47-1.25,1.939-0.25,3.626,2c1.688,2.251,2.563,3.376,2.563,3.376"/>
						<path style="fill:#F4C29D;" d="M294.406,241.781c0,0-4.317-5.708-4.594-6.031c-0.938-1.094-4.406,1.062-3.406,3.375
							c1,2.312,5.687,8.218,5.687,8.218"/>
					</g>
					<g>
						<path style="fill:#5467D3;" d="M323.222,263.321c-2.617,2.077-6.359,6.35-7.103,14.122c1.538,1.271,3.093,2.5,4.632,3.64
							c0.191,0.142,0.377,0.273,0.565,0.409c0.769-3.748,2.836-8.656,7.807-14.059C327.852,266.594,325.728,265.107,323.222,263.321
							"/>
						<path style="fill:#3498DB;" d="M320.75,281.083c-0.767-0.568-1.538-1.158-2.309-1.765
							C319.212,279.924,319.983,280.515,320.75,281.083"/>
						<path style="fill:#294291;" d="M350.083,230.417c-6.75-0.584-17.25,38.583-19.75,37.749c-0.146-0.048-0.577-0.313-1.211-0.732
							c-4.971,5.402-7.038,10.311-7.807,14.059c11.204,8.105,16.884,6.189,23.768-7.826c7-14.25,9.334-19.832,10.667-24.25
							C357.083,245,358.75,231.167,350.083,230.417"/>
						<path style="fill:#FFCD02;" d="M321.315,281.492L321.315,281.492c-0.188-0.136-0.374-0.268-0.565-0.409
							C320.941,281.225,321.127,281.356,321.315,281.492"/>
						<path style="fill:#FFCD02;" d="M318.441,279.318c-0.008-0.007-0.016-0.013-0.023-0.019
							C318.426,279.306,318.434,279.311,318.441,279.318"/>
					</g>
				</g>
				<g>
					<path style="fill:#E67E22;" d="M375.438,145.125c-14.462-0.208-26.188,12.188-26.188,27.223v1.299
						c0,2.404,1.875,4.353,4.188,4.353h43.5c3.811,0.375,3.797-0.065,5.103-2.083c0.708-1.094,1.026-4.544,1.083-6.089
						C403.678,155.091,395.749,145.417,375.438,145.125"/>
					<path style="fill:#CE5228;" d="M396.623,178c1.215-6.748,2.354-16.675,0.044-22.583c-3.762-9.613-20.334-11.75-30.173-8.341
						c-0.658,0.278-1.3,0.587-1.93,0.919c4.438-0.93,9.089-1.068,12.686,0.838c8.923,4.729,6.33,18.388,4.74,29.167H396.623z"/>
					<path style="fill:#CE5228;" d="M402.094,178.5H339.75c-10.875,0-11.375-5.75,9.875-7.625c0,0-0.5,3.375,14.75,4.375
						s37.594,0.5,37.594,0.5s0.656-0.031,0.656,1.094S402.719,178.375,402.094,178.5"/>
					<path style="fill:#FFDD50;" d="M361.537,153.815l-0.639-0.77c-0.177-0.212-0.49-0.241-0.703-0.066
						c-0.073,0.061-1.821,1.512-3.192,3.545c-0.073,0.11-0.102,0.245-0.076,0.375c0.025,0.131,0.102,0.246,0.212,0.32l0.83,0.558
						c0.086,0.058,0.183,0.085,0.279,0.085c0.16,0,0.318-0.077,0.415-0.22c1.189-1.764,2.792-3.109,2.809-3.123
						C361.684,154.343,361.713,154.027,361.537,153.815"/>
					<path style="fill:#FFDD50;" d="M356.126,158.841c-0.227-0.154-0.535-0.099-0.692,0.128c-0.013,0.018-1.251,1.825-1.929,3.411
						c-0.107,0.254,0.009,0.547,0.263,0.656l0.919,0.393c0.07,0.03,0.146,0.044,0.221,0.04c0.055-0.003,0.11-0.015,0.162-0.035
						c0.122-0.05,0.222-0.146,0.273-0.268c0.556-1.3,1.621-2.889,1.743-3.071c0.153-0.228,0.094-0.537-0.133-0.691L356.126,158.841z
						"/>
				</g>
			</g>
		</g>
		<g>
			<path style="fill:#FFFFFF;" d="M12.616,195.551c-0.056-0.333-0.095-0.67-0.095-1.016c0-3.82,3.539-6.917,7.901-6.917
				c0.988,0,1.929,0.166,2.803,0.455c0.887-5.771,6.522-10.226,13.359-10.226c6.825,0,12.451,4.438,13.353,10.194
				c0.647-0.112,1.315-0.173,1.999-0.173c5.679,0,10.282,4.03,10.282,9c0,4.971-4.603,9-10.282,9H13.092
				c-4.207,0-7.617-2.313-7.617-5.167C5.476,197.958,8.632,195.718,12.616,195.551"/>
			<path style="fill:#FFFFFF;" d="M94.147,112.554c-0.062-0.38-0.104-0.766-0.104-1.162c0-4.364,3.877-7.902,8.661-7.902
				c1.083,0,2.114,0.189,3.07,0.52c0.974-6.595,7.15-11.685,14.645-11.685c7.479,0,13.646,5.071,14.638,11.647
				c0.709-0.126,1.44-0.197,2.189-0.197c6.224,0,11.27,4.604,11.27,10.284c0,5.679-5.046,10.283-11.27,10.283H94.669
				c-4.611,0-8.349-2.643-8.349-5.903C86.32,115.303,89.782,112.745,94.147,112.554"/>
			<path style="fill:#FFFFFF;" d="M377.273,80.712c5.227,0,9.463-3.284,9.463-7.334c0-3.896-3.922-7.073-8.871-7.311
				c0.069-0.472,0.118-0.951,0.118-1.442c0-5.423-4.397-9.819-9.818-9.819c-1.228,0-2.397,0.236-3.48,0.647
				c-1.103-8.193-8.105-14.516-16.6-14.516c-6.198,0-11.591,3.375-14.487,8.379c-1.269-0.324-2.607-0.5-3.991-0.5
				c-7.494,0-13.67,5.09-14.645,11.685c-0.955-0.331-1.986-0.52-3.069-0.52c-4.784,0-8.661,3.538-8.661,7.902
				c0,0.396,0.041,0.782,0.104,1.162c-4.365,0.191-7.826,2.749-7.826,5.885c0,3.26,3.737,5.903,8.349,5.903"/>
			<path style="fill:#FFFFFF;" d="M488.107,235.524c0.064-0.382,0.108-0.77,0.108-1.167c0-4.389-4.03-7.945-9.001-7.945
				c-1.127,0-2.199,0.189-3.191,0.523c-1.011-6.631-7.429-11.748-15.217-11.748c-7.773,0-14.183,5.097-15.212,11.71
				c-0.734-0.129-1.497-0.198-2.275-0.198c-6.468,0-11.712,4.628-11.712,10.339c0,5.71,5.244,10.339,11.712,10.339h44.244
				c4.792,0,8.677-2.658,8.677-5.935C496.24,238.289,492.645,235.717,488.107,235.524"/>
			<path style="fill:#FFFFFF;" d="M442.318,117.938c0.049-0.328,0.082-0.662,0.082-1.003c0-3.772-3.058-6.83-6.829-6.83
				c-0.854,0-1.668,0.164-2.421,0.45c-0.768-5.699-5.638-10.097-11.546-10.097c-5.898,0-10.761,4.382-11.541,10.065
				c-0.56-0.11-1.136-0.171-1.727-0.171c-4.908,0-8.887,3.979-8.887,8.886c0,4.908,3.978,8.887,8.887,8.887h33.569
				c3.636,0,6.583-2.284,6.583-5.102C448.489,120.313,445.761,118.104,442.318,117.938"/>
		</g>
	</g>
</g>
</svg>
